<svg width="149" height="41" viewBox="0 0 149 41" fill="none" xmlns="http://www.w3.org/2000/svg">
<g clip-path="url(#clip0_2_6)">
<path d="M53.4311 11.0909H59.0909L63.892 22.7983H64.1136L68.9148 11.0909H74.5746V30H70.1243V18.3849H69.9673L65.4247 29.88H62.581L58.0384 18.3203H57.8814V30H53.4311V11.0909ZM82.0453 30.2678C80.5557 30.2678 79.2754 29.9631 78.2044 29.3537C77.1395 28.7382 76.3178 27.8826 75.7392 26.7869C75.1667 25.6851 74.8805 24.4079 74.8805 22.9553C74.8805 21.4964 75.1667 20.2192 75.7392 19.1236C76.3178 18.0218 77.1395 17.1662 78.2044 16.5568C79.2754 15.9413 80.5557 15.6335 82.0453 15.6335C83.5349 15.6335 84.8121 15.9413 85.877 16.5568C86.948 17.1662 87.7697 18.0218 88.3422 19.1236C88.9208 20.2192 89.2101 21.4964 89.2101 22.9553C89.2101 24.4079 88.9208 25.6851 88.3422 26.7869C87.7697 27.8826 86.948 28.7382 85.877 29.3537C84.8121 29.9631 83.5349 30.2678 82.0453 30.2678ZM82.073 26.8608C82.6146 26.8608 83.0732 26.6946 83.4487 26.3622C83.8242 26.0298 84.1104 25.5682 84.3074 24.9773C84.5105 24.3864 84.612 23.7031 84.612 22.9276C84.612 22.1397 84.5105 21.4503 84.3074 20.8594C84.1104 20.2685 83.8242 19.8068 83.4487 19.4744C83.0732 19.142 82.6146 18.9759 82.073 18.9759C81.5128 18.9759 81.0389 19.142 80.6511 19.4744C80.2695 19.8068 79.9771 20.2685 79.774 20.8594C79.577 21.4503 79.4785 22.1397 79.4785 22.9276C79.4785 23.7031 79.577 24.3864 79.774 24.9773C79.9771 25.5682 80.2695 26.0298 80.6511 26.3622C81.0389 26.6946 81.5128 26.8608 82.073 26.8608ZM101.904 20.1484L97.7587 20.2592C97.7156 19.9638 97.5987 19.7022 97.4078 19.4744C97.217 19.2405 96.9677 19.0589 96.66 18.9297C96.3584 18.7943 96.0075 18.7266 95.6074 18.7266C95.0842 18.7266 94.638 18.8312 94.2686 19.0405C93.9055 19.2498 93.727 19.5329 93.7331 19.8899C93.727 20.1669 93.8378 20.407 94.0655 20.6101C94.2994 20.8132 94.7149 20.9763 95.312 21.0994L98.0449 21.6165C99.4606 21.8873 100.513 22.3366 101.203 22.9645C101.898 23.5923 102.249 24.4233 102.255 25.4574C102.249 26.4299 101.96 27.2763 101.387 27.9964C100.821 28.7166 100.045 29.2768 99.0605 29.6768C98.0757 30.0708 96.9493 30.2678 95.6813 30.2678C93.6562 30.2678 92.0589 29.8523 90.8894 29.0213C89.726 28.1842 89.0613 27.0639 88.8951 25.6605L93.3546 25.5497C93.4531 26.0668 93.7085 26.4607 94.1209 26.7315C94.5333 27.0024 95.0596 27.1378 95.6998 27.1378C96.2784 27.1378 96.7492 27.0301 97.1124 26.8146C97.4756 26.5992 97.6602 26.313 97.6664 25.956C97.6602 25.6359 97.5186 25.3804 97.2417 25.1896C96.9647 24.9927 96.5307 24.8388 95.9398 24.728L93.4654 24.2571C92.0435 23.9986 90.9848 23.5215 90.2892 22.826C89.5937 22.1243 89.249 21.2318 89.2551 20.1484C89.249 19.2005 89.5014 18.3911 90.0123 17.7202C90.5231 17.0431 91.2495 16.526 92.1912 16.169C93.133 15.812 94.244 15.6335 95.5243 15.6335C97.4448 15.6335 98.959 16.0367 100.067 16.843C101.175 17.6432 101.787 18.745 101.904 20.1484ZM106.993 21.9119V30H102.478V11.0909H106.845V18.4219H107.002C107.322 17.5478 107.845 16.8646 108.572 16.3722C109.304 15.8797 110.2 15.6335 111.259 15.6335C112.256 15.6335 113.124 15.8551 113.862 16.2983C114.601 16.7353 115.173 17.3539 115.58 18.1541C115.992 18.9543 116.195 19.8899 116.189 20.9609V30H111.674V21.8473C111.68 21.0594 111.483 20.4439 111.083 20.0007C110.683 19.5575 110.12 19.3359 109.393 19.3359C108.92 19.3359 108.501 19.4406 108.138 19.6499C107.781 19.853 107.501 20.1454 107.298 20.527C107.101 20.9086 106.999 21.3703 106.993 21.9119ZM117.007 30V15.8182H121.522V30H117.007ZM119.269 14.1655C118.635 14.1655 118.091 13.9562 117.635 13.5376C117.18 13.1129 116.952 12.602 116.952 12.005C116.952 11.4141 117.18 10.9093 117.635 10.4908C118.091 10.0661 118.635 9.85369 119.269 9.85369C119.91 9.85369 120.454 10.0661 120.904 10.4908C121.359 10.9093 121.587 11.4141 121.587 12.005C121.587 12.602 121.359 13.1129 120.904 13.5376C120.454 13.9562 119.91 14.1655 119.269 14.1655ZM130.456 15.8182V19.142H121.334V15.8182H130.456ZM123.236 30V15.098C123.236 14.0024 123.442 13.0945 123.855 12.3743C124.267 11.648 124.84 11.1063 125.572 10.7493C126.305 10.3861 127.151 10.2045 128.111 10.2045C128.739 10.2045 129.33 10.2538 129.884 10.3523C130.444 10.4446 130.859 10.5277 131.13 10.6016L130.41 13.907C130.244 13.8516 130.041 13.8054 129.801 13.7685C129.567 13.7315 129.345 13.7131 129.136 13.7131C128.607 13.7131 128.243 13.83 128.047 14.0639C127.85 14.2978 127.751 14.6179 127.751 15.0241V30H123.236ZM133.389 35.3182C132.847 35.3182 132.336 35.2751 131.856 35.1889C131.376 35.1089 130.964 35.0012 130.619 34.8658L131.616 31.5881C132.059 31.7358 132.46 31.822 132.817 31.8466C133.18 31.8712 133.491 31.8127 133.749 31.6712C134.014 31.5357 134.217 31.2926 134.358 30.9418L134.534 30.517L129.493 15.8182H134.22L136.833 25.9375H136.981L139.631 15.8182H144.385L139.04 31.3572C138.781 32.1328 138.415 32.8161 137.941 33.407C137.473 34.004 136.867 34.4718 136.122 34.8104C135.383 35.1489 134.472 35.3182 133.389 35.3182Z" fill="white"/>
<path fill-rule="evenodd" clip-rule="evenodd" d="M27.8864 24.3188L11 33.6L17.7117 9L27.8864 24.3188Z" fill="#2584FF" stroke="#2584FF" stroke-width="10" stroke-linecap="round" stroke-linejoin="round"/>
<g style="mix-blend-mode:lighten">
<path fill-rule="evenodd" clip-rule="evenodd" d="M22.0145 24.3188L38.9009 33.6L32.1892 9L22.0145 24.3188Z" fill="#FF3400"/>
<path fill-rule="evenodd" clip-rule="evenodd" d="M22.0145 24.3188L38.9009 33.6L32.1892 9L22.0145 24.3188Z" stroke="#FF3400" stroke-width="10" stroke-linecap="round" stroke-linejoin="round"/>
</g>
</g>
<defs>
<clipPath id="clip0_2_6">
<rect width="149" height="41" fill="white"/>
</clipPath>
</defs>
</svg>
