<svg width="162" height="36" viewBox="0 0 162 36" fill="none" xmlns="http://www.w3.org/2000/svg">
<g clip-path="url(#clip0_1_6)">
<path fill-rule="evenodd" clip-rule="evenodd" d="M24.851 20.68L5.24399 30.18L13.037 5L24.851 20.68Z" fill="#2584FF" stroke="#2584FF" stroke-width="10" stroke-linecap="round" stroke-linejoin="round"/>
<g style="mix-blend-mode:lighten">
<path fill-rule="evenodd" clip-rule="evenodd" d="M18.033 20.68L37.64 30.18L29.847 5L18.033 20.68Z" fill="#FF3400"/>
<path fill-rule="evenodd" clip-rule="evenodd" d="M18.033 20.68L37.64 30.18L29.847 5L18.033 20.68Z" stroke="#FF3400" stroke-width="10" stroke-linecap="round" stroke-linejoin="round"/>
</g>
<path d="M69.7608 20.2334L75.1507 7.1396H83.2354V7.68151H82.591C82.0051 7.68151 81.5364 7.78403 81.1849 7.98908C80.9408 8.12578 80.7455 8.35524 80.5991 8.67746C80.4917 8.9118 80.438 9.52206 80.438 10.5082V23.6021C80.438 24.6175 80.4917 25.2522 80.5991 25.5061C80.7065 25.7599 80.9262 25.9845 81.2582 26.1798C81.5901 26.3653 82.0344 26.4581 82.591 26.4581H83.2354V27H72.8658V26.4581H73.5103C74.0961 26.4581 74.5648 26.3556 74.9163 26.1505C75.1604 26.0138 75.3557 25.7795 75.5022 25.4475C75.6096 25.2131 75.6633 24.598 75.6633 23.6021V8.88251L68.0472 27H67.6957L59.9624 9.01432V23.0016C59.9624 23.978 59.9868 24.5785 60.0357 24.8031C60.1626 25.2913 60.436 25.6916 60.8558 26.0041C61.2855 26.3067 61.9543 26.4581 62.8624 26.4581V27H56.0665V26.4581H56.2716C56.7109 26.4679 57.121 26.3995 57.5018 26.253C57.8826 26.0968 58.1707 25.8918 58.366 25.6379C58.5613 25.384 58.7126 25.0276 58.82 24.5687C58.8395 24.4613 58.8493 23.9633 58.8493 23.0748V10.5082C58.8493 9.50253 58.7956 8.87763 58.6882 8.63352C58.5808 8.37965 58.3611 8.15996 58.0291 7.97444C57.6971 7.77915 57.2529 7.68151 56.6963 7.68151H56.0665V7.1396H64.1806L69.7608 20.2334ZM91.2616 12.8956C92.4528 12.8956 93.5611 13.2032 94.5863 13.8183C95.6116 14.4335 96.3878 15.3074 96.9151 16.44C97.4521 17.5727 97.7206 18.8127 97.7206 20.1602C97.7206 22.1032 97.2275 23.729 96.2413 25.0374C95.0501 26.6192 93.4048 27.4101 91.3055 27.4101C89.2453 27.4101 87.6586 26.6875 86.5455 25.2424C85.4324 23.7973 84.8758 22.1228 84.8758 20.2188C84.8758 18.2561 85.4421 16.5474 86.5748 15.0925C87.7172 13.6279 89.2795 12.8956 91.2616 12.8956ZM91.3202 13.9355C90.8222 13.9355 90.3926 14.1259 90.0313 14.5067C89.6798 14.8777 89.4455 15.6198 89.3283 16.7329C89.2209 17.8363 89.1672 19.3742 89.1672 21.3465C89.1672 22.3913 89.2355 23.3677 89.3722 24.2758C89.4796 24.969 89.7091 25.4963 90.0606 25.8576C90.4121 26.2189 90.8124 26.3995 91.2616 26.3995C91.701 26.3995 92.0671 26.2774 92.3601 26.0333C92.7409 25.7014 92.9947 25.2376 93.1217 24.6419C93.317 23.7143 93.4146 21.8396 93.4146 19.0178C93.4146 17.3578 93.3218 16.2203 93.1363 15.6052C92.9508 14.9803 92.6774 14.5262 92.3161 14.2431C92.0623 14.038 91.7303 13.9355 91.3202 13.9355ZM108.456 12.9249L108.676 17.5971H108.178C107.582 16.2105 106.962 15.2634 106.318 14.7557C105.683 14.2479 105.049 13.9941 104.414 13.9941C104.014 13.9941 103.672 14.1308 103.389 14.4042C103.106 14.6678 102.964 14.9754 102.964 15.3269C102.964 15.5905 103.062 15.8444 103.257 16.0885C103.569 16.4888 104.443 17.1772 105.879 18.1536C107.314 19.1203 108.256 19.9454 108.705 20.6289C109.164 21.3026 109.394 22.0593 109.394 22.899C109.394 23.6606 109.203 24.4076 108.823 25.1399C108.442 25.8722 107.905 26.4337 107.211 26.8242C106.518 27.2148 105.752 27.4101 104.912 27.4101C104.258 27.4101 103.384 27.205 102.29 26.795C101.997 26.6875 101.797 26.6338 101.69 26.6338C101.368 26.6338 101.099 26.8779 100.884 27.3662H100.401L100.167 22.445H100.665C101.104 23.7339 101.704 24.7005 102.466 25.345C103.237 25.9894 103.965 26.3116 104.648 26.3116C105.117 26.3116 105.498 26.17 105.791 25.8869C106.093 25.594 106.245 25.2424 106.245 24.8323C106.245 24.3637 106.098 23.9584 105.805 23.6167C105.512 23.275 104.858 22.7575 103.843 22.0642C102.349 21.0292 101.382 20.2383 100.943 19.6915C100.298 18.8908 99.9762 18.0072 99.9762 17.0405C99.9762 15.986 100.337 15.034 101.06 14.1845C101.792 13.3252 102.847 12.8956 104.224 12.8956C104.966 12.8956 105.683 13.0762 106.377 13.4375C106.64 13.584 106.855 13.6572 107.021 13.6572C107.197 13.6572 107.338 13.623 107.446 13.5547C107.553 13.4766 107.724 13.2666 107.958 12.9249H108.456ZM117.083 7.1396V15.0633C117.835 14.2724 118.523 13.7158 119.148 13.3936C119.773 13.0616 120.422 12.8956 121.096 12.8956C121.955 12.8956 122.688 13.1397 123.293 13.6279C123.908 14.1161 124.313 14.6922 124.509 15.3562C124.714 16.0104 124.816 17.1186 124.816 18.6809V24.0268C124.816 25.0716 124.914 25.7258 125.109 25.9894C125.305 26.2433 125.7 26.4044 126.296 26.4727V27H119.353V26.4727C119.841 26.4044 120.208 26.2091 120.452 25.8869C120.627 25.633 120.715 25.013 120.715 24.0268V17.9193C120.715 16.7866 120.671 16.0787 120.584 15.7956C120.496 15.5026 120.344 15.2781 120.129 15.1218C119.924 14.9558 119.69 14.8729 119.426 14.8729C119.036 14.8729 118.655 15.0095 118.284 15.2829C117.913 15.5466 117.513 16.0153 117.083 16.689V24.0268C117.083 25.0032 117.156 25.6135 117.303 25.8576C117.488 26.1896 117.869 26.3946 118.445 26.4727V27H111.503V26.4727C112.079 26.4141 112.489 26.2286 112.733 25.9162C112.899 25.7014 112.982 25.0716 112.982 24.0268V10.1128C112.982 9.07779 112.884 8.43335 112.689 8.17948C112.504 7.92561 112.108 7.75962 111.503 7.68151V7.1396H117.083ZM131.48 6.67091C132.115 6.67091 132.652 6.89549 133.091 7.34464C133.531 7.78403 133.751 8.31618 133.751 8.94109C133.751 9.566 133.526 10.0982 133.077 10.5375C132.637 10.9769 132.105 11.1966 131.48 11.1966C130.855 11.1966 130.323 10.9769 129.884 10.5375C129.445 10.0982 129.225 9.566 129.225 8.94109C129.225 8.31618 129.445 7.78403 129.884 7.34464C130.323 6.89549 130.855 6.67091 131.48 6.67091ZM133.531 13.3057V24.1586C133.531 25.1253 133.643 25.7453 133.868 26.0187C134.092 26.2823 134.532 26.4337 135.186 26.4727V27H127.79V26.4727C128.395 26.4532 128.844 26.2774 129.137 25.9455C129.332 25.7209 129.43 25.1253 129.43 24.1586V16.1617C129.43 15.1951 129.318 14.5799 129.093 14.3163C128.868 14.0429 128.434 13.8867 127.79 13.8476V13.3057H133.531ZM142.538 14.741V24.2465C142.538 25.1643 142.636 25.7404 142.831 25.9748C143.144 26.336 143.72 26.502 144.56 26.4727V27H136.489V26.4727C137.105 26.463 137.539 26.3946 137.793 26.2677C138.057 26.131 138.237 25.9455 138.335 25.7111C138.433 25.4768 138.481 24.9886 138.481 24.2465V14.741H136.489V13.3057H138.481V12.2951L138.467 11.6067C138.467 10.2007 138.979 9.02897 140.005 8.09161C141.04 7.15424 142.436 6.68556 144.193 6.68556C145.394 6.68556 146.283 6.91014 146.859 7.35929C147.445 7.80844 147.738 8.30642 147.738 8.85321C147.738 9.2926 147.557 9.67341 147.196 9.99563C146.835 10.3178 146.356 10.479 145.761 10.479C145.253 10.479 144.848 10.3471 144.545 10.0835C144.252 9.81987 144.106 9.52695 144.106 9.20473C144.106 9.11685 144.135 8.93621 144.193 8.66281C144.232 8.49682 144.252 8.34059 144.252 8.19413C144.252 7.98908 144.193 7.83774 144.076 7.74009C143.92 7.59363 143.73 7.5204 143.505 7.5204C143.222 7.5204 142.983 7.63757 142.787 7.87191C142.602 8.10625 142.509 8.48217 142.509 8.99968L142.538 11.5628V13.3057H144.56V14.741H142.538ZM152.805 27.5566L148.382 17.4067C147.718 15.8737 147.225 14.9314 146.903 14.5799C146.59 14.2284 146.21 13.9843 145.761 13.8476V13.3057H153.04V13.8476C152.561 13.8671 152.224 13.9599 152.029 14.1259C151.834 14.2919 151.736 14.492 151.736 14.7264C151.736 15.0974 151.98 15.8297 152.469 16.9233L154.812 22.2839L156.408 18.139C156.984 16.6646 157.273 15.6393 157.273 15.0633C157.273 14.702 157.15 14.4139 156.906 14.1991C156.672 13.9843 156.252 13.8671 155.647 13.8476V13.3057H160.231V13.8476C159.782 13.8964 159.416 14.0722 159.133 14.3749C158.849 14.6678 158.376 15.6784 157.712 17.4067L153.801 27.5566C152.815 30.0953 152.083 31.6575 151.604 32.2434C150.931 33.0636 150.086 33.4737 149.071 33.4737C148.26 33.4737 147.601 33.2393 147.093 32.7706C146.595 32.3117 146.346 31.7552 146.346 31.101C146.346 30.5346 146.517 30.066 146.859 29.6949C147.211 29.3239 147.64 29.1384 148.148 29.1384C148.636 29.1384 149.027 29.2946 149.32 29.607C149.622 29.9195 149.779 30.4028 149.788 31.057C149.798 31.4281 149.842 31.6673 149.92 31.7747C149.998 31.8821 150.11 31.9358 150.257 31.9358C150.491 31.9358 150.74 31.7942 151.004 31.5111C151.394 31.101 151.853 30.1636 152.381 28.699L152.805 27.5566Z" fill="white"/>
</g>
<defs>
<clipPath id="clip0_1_6">
<rect width="161.466" height="36" fill="white"/>
</clipPath>
</defs>
</svg>
